<svg version="1.1" id="Layer_1" xmlns="http://www.w3.org/2000/svg" xmlns:xlink="http://www.w3.org/1999/xlink" x="0px" y="0px"
	 width="100%" viewBox="0 0 312 308" enable-background="new 0 0 312 308" xml:space="preserve">
<path fill="#FDFFFD" opacity="1.000000" stroke="none" 
	d="
M1.000000,113.000000 
	C1.000000,75.333351 1.000000,38.166702 1.000000,1.000040 
	C104.999931,1.000027 208.999863,1.000027 312.999817,1.000013 
	C312.999878,103.666557 312.999878,206.333115 312.999939,308.999756 
	C209.000168,308.999817 105.000328,308.999817 1.000249,308.999908 
	C1.000000,243.833328 1.000000,178.666672 1.000000,113.000000 
M37.467274,71.346527 
	C36.636665,72.897057 35.806053,74.447586 34.842480,76.329391 
	C34.842480,76.329391 34.804344,76.684326 34.150177,76.901909 
	C32.356472,79.876213 30.562769,82.850517 28.908550,85.809265 
	C28.908550,85.809265 28.760958,85.806664 28.157551,86.093430 
	C24.129587,95.056984 19.474531,103.803459 16.272667,113.052979 
	C13.724794,120.413261 12.952049,128.388031 11.184652,136.704178 
	C11.169076,137.133850 11.153501,137.563538 10.914488,138.798218 
	C7.326446,161.036240 10.920822,182.660400 16.592289,204.087234 
	C16.893604,205.225616 18.077059,206.130478 18.981340,207.073929 
	C18.981340,207.073929 18.834726,207.100586 18.797682,207.752640 
	C19.889475,210.774628 20.981268,213.796600 22.522833,217.353409 
	C26.246965,224.793823 30.617092,231.355927 27.406950,241.053452 
	C20.790859,261.040070 15.844561,281.580597 10.284996,301.913391 
	C9.874957,303.413025 10.056632,305.074463 9.917225,307.441650 
	C13.468168,306.487854 16.286890,305.728302 19.106964,304.973755 
	C35.100655,300.694336 51.094677,296.416199 67.902252,292.126953 
	C78.179695,289.423615 88.479317,285.612274 98.562195,292.745453 
	C98.674728,292.825043 98.886620,292.764191 99.711769,293.093048 
	C111.950684,298.562988 124.770447,301.589844 138.047913,303.543579 
	C166.637939,307.750488 193.607956,302.368134 219.729706,291.157074 
	C236.227280,284.076508 249.801834,272.660614 262.543884,260.407196 
	C276.691711,246.801941 286.890625,230.359085 294.246094,212.157242 
	C305.097015,185.305588 306.901886,157.549835 301.923828,129.312469 
	C297.531921,104.400085 286.500031,82.416153 270.474518,62.951996 
	C260.269012,50.556629 247.800888,40.599083 234.339737,32.084564 
	C227.139175,27.530037 218.920135,24.585716 210.914642,20.248566 
	C200.888412,17.276772 191.026474,13.298018 180.787918,11.627678 
	C171.305298,10.080661 161.419891,11.002606 150.971985,10.727017 
	C149.977951,10.777658 148.983932,10.828298 147.060562,10.796860 
	C139.757156,11.613200 132.410492,12.166768 125.168961,13.359016 
	C121.656441,13.937319 118.340935,15.712234 114.992477,17.002665 
	C114.992477,17.002665 114.953209,16.933126 114.126625,16.886065 
	C110.403923,18.250868 106.681213,19.615671 102.483704,20.986130 
	C102.483704,20.986130 102.034515,21.140108 101.334221,21.046053 
	C100.566620,21.441486 99.799011,21.836922 98.332413,22.350393 
	C93.198143,25.215639 88.063866,28.080887 82.995834,30.997736 
	C82.995834,30.997736 82.949852,30.927505 82.225677,30.969828 
	C79.512154,32.746540 76.798622,34.523251 73.414757,36.389275 
	C71.548836,37.859604 69.682915,39.329933 67.980835,41.005112 
	C67.980835,41.005112 67.809814,40.803478 67.122345,40.915382 
	C64.128624,43.218124 60.749451,45.163410 58.217106,47.894024 
	C51.901482,54.704124 45.970898,61.871307 39.988297,69.005127 
	C39.988297,69.005127 39.895679,68.888298 39.284374,69.010353 
	C38.876579,69.680405 38.468784,70.350456 37.467274,71.346527 
z"/>
<path fill="#7FD958" opacity="1.000000" stroke="none" 
	d="
M102.034515,21.140106 
	C102.034515,21.140108 102.483704,20.986130 103.157448,21.016024 
	C107.538528,19.674988 111.245872,18.304058 114.953209,16.933128 
	C114.953209,16.933126 114.992477,17.002665 115.419128,17.012238 
	C122.258842,16.318851 128.684097,15.709180 135.079971,14.874489 
	C138.393768,14.442022 141.685883,13.728938 144.924210,12.895535 
	C146.044876,12.607126 146.973541,11.572639 147.989899,10.878937 
	C148.983932,10.828298 149.977951,10.777658 151.823273,10.856791 
	C160.979172,11.666332 169.284470,12.338006 177.587051,13.041786 
	C178.226608,13.095999 178.842316,13.395855 179.477066,13.548396 
	C184.251266,14.695706 189.031265,15.819058 193.801514,16.982477 
	C196.438934,17.625721 199.046417,18.396816 201.693878,18.992603 
	C204.834610,19.699406 208.003845,20.279634 211.160721,20.914719 
	C218.920135,24.585716 227.139175,27.530037 234.339737,32.084564 
	C247.800888,40.599083 260.269012,50.556629 270.474518,62.951996 
	C286.500031,82.416153 297.531921,104.400085 301.923828,129.312469 
	C306.901886,157.549835 305.097015,185.305588 294.246094,212.157242 
	C286.890625,230.359085 276.691711,246.801941 262.543884,260.407196 
	C249.801834,272.660614 236.227280,284.076508 219.729706,291.157074 
	C193.607956,302.368134 166.637939,307.750488 138.047913,303.543579 
	C124.770447,301.589844 111.950684,298.562988 99.369270,292.546295 
	C98.296593,286.929169 93.211311,288.976654 90.476059,286.902496 
	C85.776543,283.338837 80.311165,286.915161 75.363205,287.551849 
	C72.926132,287.865387 67.514778,286.661926 67.088585,292.137634 
	C51.094677,296.416199 35.100655,300.694336 19.106964,304.973755 
	C16.286890,305.728302 13.468168,306.487854 9.917225,307.441650 
	C10.056632,305.074463 9.874957,303.413025 10.284996,301.913391 
	C15.844561,281.580597 20.790859,261.040070 27.406950,241.053452 
	C30.617092,231.355927 26.246965,224.793823 22.347330,216.724045 
	C23.284660,212.271027 23.311060,208.850479 18.834726,207.100586 
	C18.834726,207.100586 18.981340,207.073929 18.979679,206.679092 
	C18.776403,204.493484 18.754623,202.659912 18.340322,200.919785 
	C16.957497,195.111725 14.822451,189.412003 14.103058,183.532806 
	C12.925584,173.910004 12.599858,164.180969 11.982036,154.492462 
	C11.631604,148.997116 11.414870,143.493240 11.137924,137.993210 
	C11.153501,137.563538 11.169076,137.133850 11.611369,136.275299 
	C14.345577,128.032501 16.548302,120.185356 19.011061,112.420692 
	C20.025496,109.222359 21.655518,106.223885 22.903902,103.093956 
	C24.414709,99.306099 25.886076,95.499290 27.238424,91.652832 
	C27.904022,89.759689 28.263147,87.758797 28.760958,85.806664 
	C28.760958,85.806664 28.908550,85.809265 29.192833,85.748894 
	C32.536301,83.446457 35.380276,81.077065 34.804344,76.684326 
	C34.804344,76.684326 34.842480,76.329391 35.233452,76.027771 
	C37.042137,74.148621 38.459846,72.571091 39.913818,70.643753 
	C39.931946,69.825401 39.913811,69.356850 39.895679,68.888298 
	C39.895679,68.888298 39.988297,69.005127 40.313206,68.979233 
	C41.363434,68.650192 42.273228,68.530968 42.786392,68.016296 
	C50.437988,60.342121 58.073761,52.651062 65.605934,44.860226 
	C66.636589,43.794178 67.089447,42.169514 67.809814,40.803478 
	C67.809814,40.803478 67.980835,41.005112 68.288437,40.977081 
	C70.424416,39.670414 72.252785,38.391777 74.473663,37.082359 
	C78.970299,36.870838 81.778954,34.980076 82.949852,30.927505 
	C82.949852,30.927505 82.995834,30.997736 83.373291,30.993448 
	C85.366432,30.463430 87.024681,30.040277 88.589119,29.391071 
	C92.080841,27.942089 95.525749,26.380293 99.338608,24.863785 
	C100.469833,23.622112 101.252174,22.381109 102.034515,21.140106 
M90.317932,175.612045 
	C91.551079,176.035904 92.784225,176.459763 94.376633,177.091583 
	C94.376633,177.091583 94.791313,177.110214 95.178146,177.673477 
	C96.414604,178.154633 97.651062,178.635788 99.028534,179.812119 
	C104.314949,190.225250 109.601372,200.638367 114.915115,211.810516 
	C116.563019,215.242630 118.210922,218.674744 119.891182,222.844971 
	C120.788422,224.866379 121.685661,226.887802 122.868912,229.553574 
	C127.335976,223.758942 131.308182,218.773392 135.079239,213.640045 
	C136.821304,211.268677 138.586960,209.728165 141.694595,211.289108 
	C141.694595,211.289108 141.755905,211.348083 141.891724,211.894821 
	C142.339767,212.157852 142.787827,212.420883 143.846619,212.918594 
	C144.911789,213.607254 145.976974,214.295929 147.136917,215.651779 
	C152.103516,219.027390 157.070099,222.402985 162.593155,226.204269 
	C164.163330,227.125427 165.733490,228.046570 167.373520,229.612961 
	C169.230850,230.763229 171.088196,231.913513 173.273071,233.516922 
	C173.753983,233.788925 174.234894,234.060913 174.973312,234.978928 
	C176.178940,235.816345 177.471527,236.553421 178.574341,237.509445 
	C182.299606,240.738800 182.998413,238.501129 182.995728,235.071365 
	C182.995728,235.071365 183.102036,235.108673 183.766861,234.896240 
	C187.435684,224.243698 191.104507,213.591171 194.939911,202.445389 
	C194.944580,202.271912 194.949249,202.098419 195.321838,201.632217 
	C195.222015,201.077011 195.122192,200.521820 195.149307,199.293671 
	C195.453583,198.230453 195.757843,197.167252 196.595825,195.857925 
	C198.076920,191.256683 199.557999,186.655441 201.389145,181.732849 
	C201.623077,181.514832 201.815292,181.264725 201.991821,181.005539 
	C201.991821,181.005539 201.982635,180.973740 202.656113,180.729645 
	C204.190598,175.882431 205.725098,171.035202 207.365707,165.825394 
	C207.365707,165.825394 207.356171,165.447693 207.955078,165.093872 
	C208.894638,162.375397 209.834213,159.656921 210.874710,156.961578 
	C210.874710,156.961578 210.975708,156.984421 211.528076,156.610184 
	C212.652588,156.030838 213.777115,155.451492 215.082321,155.611710 
	C216.386581,156.073441 217.690857,156.535187 219.325592,157.621536 
	C220.424622,157.829285 222.025757,158.603683 222.538300,158.149536 
	C225.164185,155.822754 224.621201,148.547409 221.973953,145.743332 
	C221.008514,147.788620 220.012634,149.898453 218.989655,151.250778 
	C217.948639,150.476593 216.907623,149.702408 215.649490,148.344635 
	C218.199890,140.672760 220.828705,133.025482 223.246887,125.312149 
	C223.869751,123.325378 223.829987,121.130867 224.103058,118.442772 
	C224.355743,117.935379 224.608414,117.427986 225.645447,116.840805 
	C226.016663,115.130424 226.387863,113.420036 226.863342,110.977806 
	C230.494263,100.505760 234.125183,90.033722 237.756088,79.561684 
	C237.351700,79.225189 236.947296,78.888702 236.542908,78.552216 
	C233.681702,80.004234 230.820496,81.456261 227.293701,82.916229 
	C226.153839,83.560883 225.013962,84.205536 223.143661,84.894249 
	C220.424149,86.258240 217.704636,87.622231 215.000000,89.000000 
	C215.000000,89.000000 214.988144,88.982742 214.290817,88.934158 
	C213.156174,89.603951 212.021530,90.273735 210.134506,90.983757 
	C202.761963,94.352371 195.389404,97.720985 187.272903,101.057449 
	C176.733566,105.809090 166.157166,110.480850 155.670975,115.347031 
	C150.641541,117.680962 145.782776,120.382660 140.414337,122.948570 
	C140.414337,122.948570 140.025879,123.141006 139.290375,123.089767 
	C136.582458,124.424019 133.874542,125.758270 131.073456,127.065796 
	C131.073456,127.065796 131.071335,127.162712 130.338867,127.158966 
	C127.905182,128.446762 125.471497,129.734558 123.010567,130.993774 
	C123.010567,130.993774 123.013847,131.032608 122.331757,130.978790 
	C121.204018,131.643387 120.076279,132.307968 118.471474,132.977936 
	C118.471474,132.977936 118.028625,133.155457 117.285950,133.115555 
	C108.995934,136.857971 100.683907,140.552780 92.427681,144.368317 
	C89.488602,145.726578 86.684959,147.377914 83.116867,149.040085 
	C75.005966,152.823563 66.895058,156.607040 58.784157,160.390518 
	C58.880295,160.926132 58.976437,161.461746 59.072578,161.997345 
	C63.335293,163.689240 67.598000,165.381134 72.219330,167.605896 
	C73.158264,167.981064 74.097198,168.356216 75.546112,169.018814 
	C75.930855,169.065521 76.315590,169.112228 77.089066,169.695358 
	C78.069107,170.055939 79.049149,170.416504 80.448875,171.001282 
	C80.448875,171.001282 80.923164,171.039474 81.374352,171.572815 
	C82.890816,172.084915 84.407288,172.597015 86.015053,173.054977 
	C86.015053,173.054977 85.914810,173.086121 86.240974,173.683533 
	C87.481613,174.140564 88.722252,174.597595 90.003075,175.004227 
	C90.003075,175.004227 89.953262,175.043747 90.317932,175.612045 
M28.075525,262.705627 
	C28.697069,264.335022 29.318611,265.964386 29.940161,267.593781 
	C30.615438,266.165863 31.842249,264.739288 31.845804,263.309692 
	C31.852272,260.708435 30.243534,260.469055 28.075525,262.705627 
z"/>
<path fill="#9DD782" opacity="1.000000" stroke="none" 
	d="
M11.026206,138.395721 
	C11.414870,143.493240 11.631604,148.997116 11.982036,154.492462 
	C12.599858,164.180969 12.925584,173.910004 14.103058,183.532806 
	C14.822451,189.412003 16.957497,195.111725 18.340322,200.919785 
	C18.754623,202.659912 18.776403,204.493484 18.913933,206.714157 
	C18.077059,206.130478 16.893604,205.225616 16.592289,204.087234 
	C10.920822,182.660400 7.326446,161.036240 11.026206,138.395721 
z"/>
<path fill="#94D979" opacity="1.000000" stroke="none" 
	d="
M211.037689,20.581642 
	C208.003845,20.279634 204.834610,19.699406 201.693878,18.992603 
	C199.046417,18.396816 196.438934,17.625721 193.801514,16.982477 
	C189.031265,15.819058 184.251266,14.695706 179.477066,13.548396 
	C178.842316,13.395855 178.226608,13.095999 177.587051,13.041786 
	C169.284470,12.338006 160.979172,11.666332 152.193207,10.911942 
	C161.419891,11.002606 171.305298,10.080661 180.787918,11.627678 
	C191.026474,13.298018 200.888412,17.276772 211.037689,20.581642 
z"/>
<path fill="#9DD782" opacity="1.000000" stroke="none" 
	d="
M28.459255,85.950043 
	C28.263147,87.758797 27.904022,89.759689 27.238424,91.652832 
	C25.886076,95.499290 24.414709,99.306099 22.903902,103.093956 
	C21.655518,106.223885 20.025496,109.222359 19.011061,112.420692 
	C16.548302,120.185356 14.345577,128.032501 11.714664,135.968201 
	C12.952049,128.388031 13.724794,120.413261 16.272667,113.052979 
	C19.474531,103.803459 24.129587,95.056984 28.459255,85.950043 
z"/>
<path fill="#A0DA83" opacity="1.000000" stroke="none" 
	d="
M67.466080,40.859428 
	C67.089447,42.169514 66.636589,43.794178 65.605934,44.860226 
	C58.073761,52.651062 50.437988,60.342121 42.786392,68.016296 
	C42.273228,68.530968 41.363434,68.650192 40.261940,68.924255 
	C45.970898,61.871307 51.901482,54.704124 58.217106,47.894024 
	C60.749451,45.163410 64.128624,43.218124 67.466080,40.859428 
z"/>
<path fill="#99D57C" opacity="1.000000" stroke="none" 
	d="
M67.495422,292.132294 
	C67.514778,286.661926 72.926132,287.865387 75.363205,287.551849 
	C80.311165,286.915161 85.776543,283.338837 90.476059,286.902496 
	C93.211311,288.976654 98.296593,286.929169 99.039444,292.384216 
	C98.886620,292.764191 98.674728,292.825043 98.562195,292.745453 
	C88.479317,285.612274 78.179695,289.423615 67.495422,292.132294 
z"/>
<path fill="#94D979" opacity="1.000000" stroke="none" 
	d="
M147.525238,10.837898 
	C146.973541,11.572639 146.044876,12.607126 144.924210,12.895535 
	C141.685883,13.728938 138.393768,14.442022 135.079971,14.874489 
	C128.684097,15.709180 122.258842,16.318851 115.391006,16.983612 
	C118.340935,15.712234 121.656441,13.937319 125.168961,13.359016 
	C132.410492,12.166768 139.757156,11.613200 147.525238,10.837898 
z"/>
<path fill="#98D27C" opacity="1.000000" stroke="none" 
	d="
M98.989723,24.864456 
	C95.525749,26.380293 92.080841,27.942089 88.589119,29.391071 
	C87.024681,30.040277 85.366432,30.463430 83.340179,30.967648 
	C88.063866,28.080887 93.198143,25.215639 98.671532,22.619713 
	C99.003670,23.547508 98.996696,24.205982 98.989723,24.864456 
z"/>
<path fill="#98D27C" opacity="1.000000" stroke="none" 
	d="
M82.587769,30.948666 
	C81.778954,34.980076 78.970299,36.870838 74.463196,36.878548 
	C74.060234,36.705517 74.085091,36.299957 74.085091,36.299957 
	C76.798622,34.523251 79.512154,32.746540 82.587769,30.948666 
z"/>
<path fill="#94D979" opacity="1.000000" stroke="none" 
	d="
M114.539917,16.909595 
	C111.245872,18.304058 107.538528,19.674988 103.394852,21.013195 
	C106.681213,19.615671 110.403923,18.250868 114.539917,16.909595 
z"/>
<path fill="#9DD782" opacity="1.000000" stroke="none" 
	d="
M34.477261,76.793121 
	C35.380276,81.077065 32.536301,83.446457 29.123089,85.756668 
	C30.562769,82.850517 32.356472,79.876213 34.477261,76.793121 
z"/>
<path fill="#9DD782" opacity="1.000000" stroke="none" 
	d="
M18.816204,207.426605 
	C23.311060,208.850479 23.284660,212.271027 22.122444,216.456635 
	C20.981268,213.796600 19.889475,210.774628 18.816204,207.426605 
z"/>
<path fill="#A0DA83" opacity="1.000000" stroke="none" 
	d="
M73.749924,36.344616 
	C74.085091,36.299957 74.060234,36.705517 74.070694,36.909328 
	C72.252785,38.391777 70.424416,39.670414 68.206512,40.874657 
	C69.682915,39.329933 71.548836,37.859604 73.749924,36.344616 
z"/>
<path fill="#9DD782" opacity="1.000000" stroke="none" 
	d="
M39.877560,70.993561 
	C38.459846,72.571091 37.042137,74.148621 35.299934,75.862137 
	C35.806053,74.447586 36.636665,72.897057 38.067451,71.177002 
	C39.070938,71.002838 39.474247,70.998199 39.877560,70.993561 
z"/>
<path fill="#94D979" opacity="1.000000" stroke="none" 
	d="
M99.338608,24.863785 
	C98.996696,24.205982 99.003670,23.547508 99.021027,22.560696 
	C99.799011,21.836922 100.566620,21.441486 101.684372,21.093079 
	C101.252174,22.381109 100.469833,23.622112 99.338608,24.863785 
z"/>
<path fill="#A0DA83" opacity="1.000000" stroke="none" 
	d="
M39.913818,70.643753 
	C39.474247,70.998199 39.070938,71.002838 38.364304,71.013992 
	C38.468784,70.350456 38.876579,69.680405 39.590027,68.949326 
	C39.913811,69.356850 39.931946,69.825401 39.913818,70.643753 
z"/>
<path fill="#FEFEFE" opacity="1.000000" stroke="none" 
	d="
M196.062103,196.104034 
	C195.757843,197.167252 195.453583,198.230453 195.034683,199.954544 
	C194.931351,201.051926 194.942642,201.488434 194.953934,201.924942 
	C194.949249,202.098419 194.944580,202.271912 194.511536,202.755539 
	C193.319244,203.664062 191.948730,204.203018 191.883392,204.869843 
	C191.055466,213.319138 184.212845,220.018845 184.583130,228.934570 
	C181.234543,229.527390 181.645859,231.128937 182.963196,233.364639 
	C183.005173,234.179596 183.053604,234.644135 183.102036,235.108673 
	C183.102036,235.108673 182.995728,235.071365 182.636063,235.044281 
	C180.186813,234.676270 178.097229,234.335312 176.014252,233.628448 
	C176.808487,232.045364 177.596100,230.828217 178.755707,229.036224 
	C175.589371,229.036224 172.784958,229.036224 169.745712,229.019318 
	C169.510880,229.002396 169.041977,228.959229 169.027054,228.543762 
	C169.678009,222.229584 165.641815,222.889557 161.611801,222.999405 
	C156.513184,220.310532 154.282654,213.162567 147.042145,214.984589 
	C145.976974,214.295929 144.911789,213.607254 143.468216,212.527939 
	C142.645172,211.874222 142.200546,211.611160 141.755905,211.348083 
	C141.755905,211.348083 141.694595,211.289108 141.726501,210.910828 
	C135.468582,206.182007 129.186966,201.819427 122.873352,197.503693 
	C122.365402,197.156494 121.637047,197.131744 120.901108,196.748947 
	C120.603661,196.278183 120.362602,196.081223 120.059624,195.711395 
	C120.051315,195.472900 120.002136,194.998169 120.001312,194.628540 
	C120.999504,192.504761 121.998520,190.750595 123.341125,188.963776 
	C124.788612,187.619644 125.892509,186.308182 126.998207,184.998352 
	C127.000000,185.000000 126.996758,184.996384 127.340332,184.964066 
	C128.789688,183.621567 129.895447,182.311386 131.368896,180.988953 
	C135.860687,176.984222 139.835510,172.822433 144.136383,169.030441 
	C158.090210,156.727661 169.559296,141.875671 184.164368,130.233292 
	C187.740646,127.382477 190.811874,123.898254 194.116730,120.706726 
	C195.743011,119.136192 197.372543,117.569008 199.285919,115.867126 
	C200.713318,114.821922 201.855438,113.909904 203.341095,112.964661 
	C204.788849,111.619949 205.893082,110.308479 207.240723,108.842728 
	C207.988251,108.124321 208.492355,107.560181 209.403534,106.997955 
	C211.401733,106.245529 213.213501,105.757759 214.528305,104.669548 
	C216.182846,103.300171 217.431015,101.439789 219.416382,99.140602 
	C219.423050,99.174767 219.210617,98.086777 218.999084,96.999390 
	C219.000000,97.000000 218.998779,96.998474 219.398041,96.999542 
	C226.302200,97.976051 227.979889,99.810051 226.941605,105.094421 
	C226.098572,109.385086 222.726379,110.100006 219.074310,110.445625 
	C215.194946,110.812759 212.158600,114.571472 213.233627,117.884026 
	C213.603210,119.022820 215.036911,119.816284 215.984482,120.767509 
	C216.649597,119.746475 217.641418,118.801949 217.902649,117.686348 
	C218.286896,116.045441 218.149750,114.282433 218.234695,112.571442 
	C218.854584,112.494972 219.474472,112.418495 220.094360,112.342026 
	C220.573700,114.352654 221.053055,116.363281 221.651535,118.873634 
	C221.496109,118.856049 222.296158,118.946564 223.069992,119.352966 
	C222.515442,120.755783 221.987091,121.842720 221.051331,122.979538 
	C216.730316,126.045204 217.149338,130.342453 217.289093,134.851532 
	C217.235413,135.774918 217.131378,136.388977 216.639832,137.010818 
	C213.033813,138.990875 212.436096,141.695847 214.019287,145.344559 
	C213.910858,146.108765 213.801254,146.538605 213.347107,146.989746 
	C210.095108,147.765823 210.621017,149.295731 212.069778,151.356461 
	C211.723465,152.451660 211.400513,153.229660 210.712128,154.040436 
	C206.158096,156.902466 204.494247,161.494171 205.751160,166.254181 
	C205.002243,167.996094 204.518463,169.507690 203.686050,171.046783 
	C202.907562,172.388138 202.477692,173.701996 202.041214,175.345612 
	C202.014542,176.114517 201.994507,176.553680 201.594696,177.045029 
	C200.476669,178.510391 199.747162,179.928253 198.997467,181.335358 
	C198.343094,182.563568 197.665970,183.779663 196.999146,184.543304 
	C196.999390,180.937347 196.999390,177.789200 196.999390,174.641037 
	C196.391556,174.688065 195.783737,174.735092 195.175903,174.782120 
	C195.851288,178.181137 192.717377,181.959976 197.000610,185.399902 
	C196.687485,189.235092 196.374786,192.669556 196.062103,196.104034 
M198.046844,165.147446 
	C198.831284,165.597443 199.615723,166.047440 200.400162,166.497437 
	C200.753525,165.342911 201.404053,164.172775 201.344559,163.039932 
	C201.310913,162.399628 200.110138,161.820633 199.435059,161.214020 
	C198.960602,162.268890 198.486160,163.323746 198.046844,165.147446 
M212.998779,130.606522 
	C212.782700,129.586456 212.566605,128.566391 212.350525,127.546333 
	C212.077225,127.616150 211.803940,127.685966 211.530640,127.755783 
	C211.530640,129.958389 211.530640,132.160995 211.530640,134.363602 
	C211.839539,134.386368 212.148422,134.409134 212.457321,134.431900 
	C212.637924,133.419662 212.818542,132.407425 212.998779,130.606522 
z"/>
<path fill="#FBFDF9" opacity="1.000000" stroke="none" 
	d="
M140.025879,123.141006 
	C140.025879,123.141006 140.414337,122.948570 141.036148,122.968613 
	C145.319992,121.755768 149.068176,120.729752 152.626511,119.247856 
	C160.559265,115.944237 168.521439,112.665329 176.224136,108.873604 
	C180.416428,106.809898 184.102478,103.717842 188.016861,101.089600 
	C195.389404,97.720985 202.761963,94.352371 210.897308,90.989838 
	C212.769470,90.324860 213.878815,89.653801 214.988144,88.982742 
	C214.988144,88.982742 215.000000,89.000000 215.421616,89.012772 
	C217.560059,89.014542 219.276901,89.003540 221.245743,88.995544 
	C221.665787,88.999199 221.833817,88.999840 222.003906,89.333054 
	C222.004990,90.108986 222.004028,90.552361 221.649292,91.001846 
	C220.529800,91.670265 219.764099,92.332565 218.613556,93.007469 
	C215.833740,94.173843 213.170746,94.976097 211.099899,96.554985 
	C206.864807,99.783966 202.916748,103.394958 198.916824,106.923828 
	C197.507614,108.167084 196.292236,109.630043 194.741730,110.995468 
	C194.495102,110.998260 194.001892,111.006104 193.681213,111.044884 
	C192.901428,111.718971 192.442307,112.354271 191.737228,112.990067 
	C191.491272,112.990555 190.999390,112.999084 190.602234,113.000648 
	C187.041153,112.644142 186.865005,114.697823 186.615036,116.997177 
	C181.162918,120.335564 176.081161,123.667633 170.649658,127.035583 
	C167.868515,129.049408 165.437119,131.027359 162.948151,133.347549 
	C157.842163,137.557526 152.054520,140.797775 148.032288,145.536499 
	C145.746826,148.229080 144.075363,149.254333 140.690109,149.048492 
	C139.911743,149.723404 139.455566,150.361115 138.999695,150.999405 
	C139.000000,151.000000 138.998795,150.999390 138.633698,151.003021 
	C136.843887,152.334824 135.419174,153.662994 133.641388,154.998840 
	C132.525558,155.671021 131.762787,156.335510 130.625580,157.001495 
	C127.834846,158.669968 125.418510,160.336914 123.001083,162.252167 
	C122.999985,162.500443 122.996010,162.997009 122.676651,163.039154 
	C121.902283,163.716431 121.447266,164.351562 120.572090,164.990067 
	C118.588425,165.237808 115.802376,165.174576 115.651474,165.774353 
	C114.219543,171.465561 108.246834,171.639603 104.632126,175.038651 
	C102.509048,175.723602 100.750519,176.369095 98.573105,177.011261 
	C97.033249,177.042023 95.912285,177.076111 94.791313,177.110199 
	C94.791313,177.110214 94.376633,177.091583 94.125671,176.635773 
	C92.567566,175.801239 91.260414,175.422485 89.953262,175.043747 
	C89.953262,175.043747 90.003075,175.004227 89.936035,174.659241 
	C88.550941,173.904877 87.232872,173.495499 85.914810,173.086121 
	C85.914810,173.086121 86.015053,173.054977 85.933800,172.697021 
	C84.209419,171.905884 82.566292,171.472687 80.923164,171.039490 
	C80.923164,171.039474 80.448875,171.001282 80.157486,170.548431 
	C78.810837,169.783371 77.755585,169.471161 76.700333,169.158936 
	C76.315590,169.112228 75.930855,169.065521 75.213501,168.545883 
	C73.874161,167.739639 72.867439,167.406326 71.860718,167.073029 
	C67.598000,165.381134 63.335293,163.689240 59.072578,161.997345 
	C58.976437,161.461746 58.880295,160.926132 58.784157,160.390518 
	C66.895058,156.607040 75.005966,152.823563 83.915543,149.016708 
	C86.980896,148.793747 89.558395,149.221786 91.458008,148.281036 
	C98.088730,144.997284 104.508705,141.282166 110.958435,137.641800 
	C113.385902,136.271698 115.675941,134.658066 118.028625,133.155457 
	C118.028625,133.155457 118.471474,132.977936 119.088730,133.005203 
	C120.808601,132.365845 121.911224,131.699219 123.013847,131.032608 
	C123.013847,131.032608 123.010567,130.993774 123.418930,131.022308 
	C126.241966,129.754807 128.656647,128.458755 131.071335,127.162704 
	C131.071335,127.162712 131.073456,127.065796 131.531006,127.072411 
	C135.200500,126.853859 139.039917,127.909317 140.025879,123.141006 
z"/>
<path fill="#EAF9E2" opacity="1.000000" stroke="none" 
	d="
M141.012299,149.011261 
	C144.075363,149.254333 145.746826,148.229080 148.032288,145.536499 
	C152.054520,140.797775 157.842163,137.557526 163.360596,133.346497 
	C168.604965,133.849670 170.249664,130.959015 170.999390,126.999695 
	C176.081161,123.667633 181.162918,120.335564 186.960114,116.966827 
	C188.783478,115.619804 189.891434,114.309441 190.999390,112.999084 
	C190.999390,112.999084 191.491272,112.990555 192.059723,112.953094 
	C193.086090,112.279121 193.543991,111.642616 194.001892,111.006104 
	C194.001892,111.006104 194.495102,110.998260 195.122849,111.008125 
	C196.833923,112.678764 197.917267,114.339539 199.000610,116.000313 
	C197.372543,117.569008 195.743011,119.136192 194.116730,120.706726 
	C190.811874,123.898254 187.740646,127.382477 184.164368,130.233292 
	C169.559296,141.875671 158.090210,156.727661 144.136383,169.030441 
	C139.835510,172.822433 135.860687,176.984222 131.006348,180.994171 
	C129.182968,182.339905 128.089859,183.668137 126.996750,184.996384 
	C126.996758,184.996384 127.000000,185.000000 126.655258,185.032440 
	C125.206184,186.375397 124.101860,187.685913 122.997543,188.996429 
	C121.998520,190.750595 120.999504,192.504761 119.620872,194.643921 
	C115.715874,195.954330 116.721481,197.945343 118.107796,200.378098 
	C118.441414,202.157486 118.735481,203.575363 118.750214,205.232361 
	C117.276512,207.331482 116.082153,209.191498 114.887794,211.051498 
	C109.601372,200.638367 104.314949,190.225250 99.021240,179.399368 
	C99.013947,178.986618 99.140564,178.857147 99.492599,178.894653 
	C101.561989,177.621185 103.279335,176.310181 104.996674,174.999176 
	C108.246834,171.639603 114.219543,171.465561 115.651474,165.774353 
	C115.802376,165.174576 118.588425,165.237808 120.894241,164.953568 
	C122.089706,164.274796 122.542854,163.635895 122.996002,162.997009 
	C122.996010,162.997009 122.999985,162.500443 123.389778,162.250977 
	C127.203896,161.803268 130.168762,160.941757 131.000000,157.000000 
	C131.762787,156.335510 132.525558,155.671021 133.988556,154.967468 
	C136.125443,153.618729 137.562119,152.309067 138.998810,150.999390 
	C138.998795,150.999390 139.000000,151.000000 139.319885,150.958984 
	C140.097290,150.282410 140.554794,149.646835 141.012299,149.011261 
z"/>
<path fill="#BFECAC" opacity="1.000000" stroke="none" 
	d="
M119.029549,204.993240 
	C118.735481,203.575363 118.441414,202.157486 118.345093,200.178192 
	C119.029648,198.738098 119.516464,197.859436 120.255737,196.995850 
	C120.675827,196.993027 120.843475,196.975098 121.011116,196.957153 
	C121.637047,197.131744 122.365402,197.156494 122.873352,197.503693 
	C129.186966,201.819427 135.468582,206.182007 141.689301,210.890198 
	C138.586960,209.728165 136.821304,211.268677 135.079239,213.640045 
	C131.308182,218.773392 127.335976,223.758942 122.868912,229.553574 
	C121.685661,226.887802 120.788422,224.866379 120.269608,222.387192 
	C121.091339,221.156708 122.016754,220.301422 121.900795,219.624527 
	C121.061790,214.727203 120.012352,209.865936 119.029549,204.993240 
z"/>
<path fill="#F7FCF3" opacity="1.000000" stroke="none" 
	d="
M218.998383,92.994858 
	C219.764099,92.332565 220.529800,91.670265 222.046661,91.002960 
	C228.289185,90.579826 230.261703,87.488266 227.959305,82.908279 
	C230.820496,81.456261 233.681702,80.004234 236.542908,78.552216 
	C236.947296,78.888702 237.351700,79.225189 237.756088,79.561684 
	C234.125183,90.033722 230.494263,100.505760 226.555389,111.591934 
	C225.785309,113.777565 225.323196,115.349075 224.861084,116.920586 
	C224.608414,117.427986 224.355743,117.935379 223.849091,118.731476 
	C223.595123,119.020187 223.096207,119.037079 223.096207,119.037079 
	C222.296158,118.946564 221.496109,118.856049 221.651535,118.873634 
	C221.053055,116.363281 220.573700,114.352654 220.094360,112.342026 
	C219.474472,112.418495 218.854584,112.494972 218.234695,112.571442 
	C218.149750,114.282433 218.286896,116.045441 217.902649,117.686348 
	C217.641418,118.801949 216.649597,119.746475 215.984482,120.767509 
	C215.036911,119.816284 213.603210,119.022820 213.233627,117.884026 
	C212.158600,114.571472 215.194946,110.812759 219.074310,110.445625 
	C222.726379,110.100006 226.098572,109.385086 226.941605,105.094421 
	C227.979889,99.810051 226.302200,97.976051 219.424805,96.676552 
	C219.034348,95.233284 219.016373,94.114075 218.998383,92.994858 
z"/>
<path fill="#E7FADE" opacity="1.000000" stroke="none" 
	d="
M187.644882,101.073524 
	C184.102478,103.717842 180.416428,106.809898 176.224136,108.873604 
	C168.521439,112.665329 160.559265,115.944237 152.626511,119.247856 
	C149.068176,120.729752 145.319992,121.755768 141.252350,122.953232 
	C145.782776,120.382660 150.641541,117.680962 155.670975,115.347031 
	C166.157166,110.480850 176.733566,105.809090 187.644882,101.073524 
z"/>
<path fill="#A1D788" opacity="1.000000" stroke="none" 
	d="
M223.069992,119.352966 
	C223.096207,119.037079 223.595123,119.020187 223.844879,119.025986 
	C223.829987,121.130867 223.869751,123.325378 223.246887,125.312149 
	C220.828705,133.025482 218.199890,140.672760 215.502472,148.919800 
	C215.204178,151.287354 215.052902,153.079742 214.901627,154.872131 
	C213.777115,155.451492 212.652588,156.030838 211.236511,156.424683 
	C210.989151,155.495331 211.033356,154.751480 211.077545,154.007645 
	C211.400513,153.229660 211.723465,152.451660 212.318939,151.148743 
	C212.958191,149.405380 213.324921,148.186920 213.691650,146.968460 
	C213.801254,146.538605 213.910858,146.108765 214.287781,145.111267 
	C215.379166,142.030090 216.203247,139.516571 217.027344,137.003052 
	C217.131378,136.388977 217.235413,135.774918 217.621521,134.669312 
	C219.088669,130.428406 220.273712,126.679031 221.458755,122.929657 
	C221.987091,121.842720 222.515442,120.755783 223.069992,119.352966 
z"/>
<path fill="#E7FADE" opacity="1.000000" stroke="none" 
	d="
M117.657288,133.135498 
	C115.675941,134.658066 113.385902,136.271698 110.958435,137.641800 
	C104.508705,141.282166 98.088730,144.997284 91.458008,148.281036 
	C89.558395,149.221786 86.980896,148.793747 84.266861,148.944397 
	C86.684959,147.377914 89.488602,145.726578 92.427681,144.368317 
	C100.683907,140.552780 108.995934,136.857971 117.657288,133.135498 
z"/>
<path fill="#E2F9D7" opacity="1.000000" stroke="none" 
	d="
M183.434448,235.002457 
	C183.053604,234.644135 183.005173,234.179596 183.227600,233.166458 
	C183.980026,231.373947 184.461578,230.130035 184.943146,228.886124 
	C184.212845,220.018845 191.055466,213.319138 191.883392,204.869843 
	C191.948730,204.203018 193.319244,203.664062 194.428253,203.002167 
	C191.104507,213.591171 187.435684,224.243698 183.434448,235.002457 
z"/>
<path fill="#DFF6D2" opacity="1.000000" stroke="none" 
	d="
M118.750214,205.232361 
	C120.012352,209.865936 121.061790,214.727203 121.900795,219.624527 
	C122.016754,220.301422 121.091339,221.156708 120.253433,222.018127 
	C118.210922,218.674744 116.563019,215.242630 114.901459,211.431000 
	C116.082153,209.191498 117.276512,207.331482 118.750214,205.232361 
z"/>
<path fill="#DFF7D6" opacity="1.000000" stroke="none" 
	d="
M147.089539,215.318176 
	C154.282654,213.162567 156.513184,220.310532 161.625092,223.337738 
	C161.997849,224.421707 162.017273,225.100143 162.036697,225.778580 
	C157.070099,222.402985 152.103516,219.027390 147.089539,215.318176 
z"/>
<path fill="#81D65F" opacity="1.000000" stroke="none" 
	d="
M219.016739,152.008301 
	C220.012634,149.898453 221.008514,147.788620 221.973953,145.743332 
	C224.621201,148.547409 225.164185,155.822754 222.538300,158.149536 
	C222.025757,158.603683 220.424622,157.829285 219.161591,156.893433 
	C219.003967,154.779663 219.010361,153.393982 219.016739,152.008301 
z"/>
<path fill="#F7FCF3" opacity="1.000000" stroke="none" 
	d="
M196.998901,185.001114 
	C197.665970,183.779663 198.343094,182.563568 198.997467,181.335358 
	C199.747162,179.928253 200.476669,178.510391 201.607635,177.443329 
	C201.994446,178.850891 201.988541,179.912323 201.982635,180.973740 
	C201.982635,180.973740 201.991821,181.005539 201.729156,181.073029 
	C201.324020,181.445084 201.181549,181.749634 201.039093,182.054199 
	C199.557999,186.655441 198.076920,191.256683 196.328949,195.980988 
	C196.374786,192.669556 196.687485,189.235092 197.000092,185.400299 
	C197.000000,185.000000 196.998901,185.001114 196.998901,185.001114 
z"/>
<path fill="#D9F7C9" opacity="1.000000" stroke="none" 
	d="
M202.319366,180.851685 
	C201.988541,179.912323 201.994446,178.850891 201.987396,177.391174 
	C201.994507,176.553680 202.014542,176.114517 202.302185,175.151306 
	C203.058090,173.424606 203.546371,172.221954 204.034668,171.019287 
	C204.518463,169.507690 205.002243,167.996094 206.064102,166.278229 
	C206.847961,166.110641 207.053772,166.149307 207.259583,166.187973 
	C205.725098,171.035202 204.190598,175.882431 202.319366,180.851685 
z"/>
<path fill="#EEFCE8" opacity="1.000000" stroke="none" 
	d="
M162.314926,225.991425 
	C162.017273,225.100143 161.997849,224.421707 161.965118,223.404938 
	C165.641815,222.889557 169.678009,222.229584 168.736481,228.551987 
	C168.075104,228.973022 167.689377,228.970383 167.303650,228.967712 
	C165.733490,228.046570 164.163330,227.125427 162.314926,225.991425 
z"/>
<path fill="#75DD4D" opacity="1.000000" stroke="none" 
	d="
M219.003204,151.629547 
	C219.010361,153.393982 219.003967,154.779663 218.996338,156.581146 
	C217.690857,156.535187 216.386581,156.073441 214.991974,155.241913 
	C215.052902,153.079742 215.204178,151.287354 215.611023,149.211578 
	C216.907623,149.702408 217.948639,150.476593 219.003204,151.629547 
z"/>
<path fill="#EEFAE6" opacity="1.000000" stroke="none" 
	d="
M227.626495,82.912262 
	C230.261703,87.488266 228.289185,90.579826 222.400421,90.996841 
	C222.004028,90.552361 222.004990,90.108986 222.311646,89.180275 
	C223.972977,87.770752 225.328613,86.846573 227.538071,85.340332 
	C225.643280,85.213066 224.859024,85.160393 224.025101,85.042946 
	C223.975433,84.978172 223.874100,84.850189 223.874100,84.850189 
	C225.013962,84.205536 226.153839,83.560883 227.626495,82.912262 
z"/>
<path fill="#F7FCF3" opacity="1.000000" stroke="none" 
	d="
M207.312653,166.006683 
	C207.053772,166.149307 206.847961,166.110641 206.329224,166.047913 
	C204.494247,161.494171 206.158096,156.902466 210.712128,154.040436 
	C211.033356,154.751480 210.989151,155.495331 210.960327,156.611786 
	C210.975708,156.984421 210.874710,156.961578 210.536087,157.132965 
	C209.250366,160.018799 208.303268,162.733246 207.356171,165.447693 
	C207.356171,165.447693 207.365707,165.825394 207.312653,166.006683 
z"/>
<path fill="#86D35F" opacity="1.000000" stroke="none" 
	d="
M28.187002,262.318298 
	C30.243534,260.469055 31.852272,260.708435 31.845804,263.309692 
	C31.842249,264.739288 30.615438,266.165863 29.940157,267.593781 
	C29.318611,265.964386 28.697069,264.335022 28.187002,262.318298 
z"/>
<path fill="#E7FAD9" opacity="1.000000" stroke="none" 
	d="
M176.007645,233.994370 
	C178.097229,234.335312 180.186813,234.676270 182.691925,235.048798 
	C182.998413,238.501129 182.299606,240.738800 178.574341,237.509445 
	C177.471527,236.553421 176.178940,235.816345 174.926132,234.557465 
	C174.878952,234.135986 175.042587,233.939453 175.283508,233.959106 
	C175.524445,233.978775 176.007645,233.994370 176.007645,233.994370 
z"/>
<path fill="#E7FADE" opacity="1.000000" stroke="none" 
	d="
M139.658127,123.115387 
	C139.039917,127.909317 135.200500,126.853859 131.577576,127.085777 
	C133.874542,125.758270 136.582458,124.424019 139.658127,123.115387 
z"/>
<path fill="#D9F7C9" opacity="1.000000" stroke="none" 
	d="
M207.655640,165.270782 
	C208.303268,162.733246 209.250366,160.018799 210.485626,157.121399 
	C209.834213,159.656921 208.894638,162.375397 207.655640,165.270782 
z"/>
<path fill="#EEFAE6" opacity="1.000000" stroke="none" 
	d="
M220.993729,88.992538 
	C219.276901,89.003540 217.560059,89.014542 215.414185,89.005890 
	C217.704636,87.622231 220.424149,86.258240 223.508881,84.872223 
	C223.874100,84.850189 223.975433,84.978172 223.844788,85.311859 
	C222.807327,86.761215 221.900528,87.876877 220.993729,88.992538 
z"/>
<path fill="#E7FADE" opacity="1.000000" stroke="none" 
	d="
M130.705109,127.160835 
	C128.656647,128.458755 126.241966,129.754807 123.432549,131.036606 
	C125.471497,129.734558 127.905182,128.446762 130.705109,127.160835 
z"/>
<path fill="#E7FAD9" opacity="1.000000" stroke="none" 
	d="
M167.338593,229.290344 
	C167.689377,228.970383 168.075104,228.973022 168.751404,228.967453 
	C169.041977,228.959229 169.510880,229.002396 169.803955,229.349548 
	C171.104538,230.756241 172.112030,231.815765 173.075745,232.922165 
	C173.031967,232.969025 172.945541,233.063782 172.945541,233.063782 
	C171.088196,231.913513 169.230850,230.763229 167.338593,229.290344 
z"/>
<path fill="#A1D788" opacity="1.000000" stroke="none" 
	d="
M225.253265,116.880692 
	C225.323196,115.349075 225.785309,113.777565 226.503250,111.957855 
	C226.387863,113.420036 226.016663,115.130424 225.253265,116.880692 
z"/>
<path fill="#EAF9E2" opacity="1.000000" stroke="none" 
	d="
M81.148758,171.306152 
	C82.566292,171.472687 84.209419,171.905884 85.888153,172.724091 
	C84.407288,172.597015 82.890816,172.084915 81.148758,171.306152 
z"/>
<path fill="#EAF9E2" opacity="1.000000" stroke="none" 
	d="
M86.077896,173.384827 
	C87.232872,173.495499 88.550941,173.904877 89.915947,174.684433 
	C88.722252,174.597595 87.481613,174.140564 86.077896,173.384827 
z"/>
<path fill="#EAF9E2" opacity="1.000000" stroke="none" 
	d="
M90.135597,175.327896 
	C91.260414,175.422485 92.567566,175.801239 93.946045,176.531799 
	C92.784225,176.459763 91.551079,176.035904 90.135597,175.327896 
z"/>
<path fill="#EAF9E2" opacity="1.000000" stroke="none" 
	d="
M94.984726,177.391846 
	C95.912285,177.076111 97.033249,177.042023 98.581818,177.320068 
	C99.053131,178.040543 99.096848,178.448837 99.140564,178.857147 
	C99.140564,178.857147 99.013947,178.986618 98.950729,179.051788 
	C97.651062,178.635788 96.414604,178.154633 94.984726,177.391846 
z"/>
<path fill="#EEFAE6" opacity="1.000000" stroke="none" 
	d="
M214.639481,88.958450 
	C213.878815,89.653801 212.769470,90.324860 211.273499,90.969711 
	C212.021530,90.273735 213.156174,89.603951 214.639481,88.958450 
z"/>
<path fill="#E7FADE" opacity="1.000000" stroke="none" 
	d="
M122.672806,131.005707 
	C121.911224,131.699219 120.808601,132.365845 119.327263,133.002502 
	C120.076279,132.307968 121.204018,131.643387 122.672806,131.005707 
z"/>
<path fill="#EAF9E2" opacity="1.000000" stroke="none" 
	d="
M72.040024,167.339447 
	C72.867439,167.406326 73.874161,167.739639 74.958511,168.402161 
	C74.097198,168.356216 73.158264,167.981064 72.040024,167.339447 
z"/>
<path fill="#EAF9E2" opacity="1.000000" stroke="none" 
	d="
M76.894699,169.427155 
	C77.755585,169.471161 78.810837,169.783371 79.947647,170.436325 
	C79.049149,170.416504 78.069107,170.055939 76.894699,169.427155 
z"/>
<path fill="#BFECAC" opacity="1.000000" stroke="none" 
	d="
M141.823822,211.621460 
	C142.200546,211.611160 142.645172,211.874222 143.162842,212.410599 
	C142.787827,212.420883 142.339767,212.157852 141.823822,211.621460 
z"/>
<path fill="#E2F9D7" opacity="1.000000" stroke="none" 
	d="
M195.137878,201.778580 
	C194.942642,201.488434 194.931351,201.051926 194.971222,200.291016 
	C195.122192,200.521820 195.222015,201.077011 195.137878,201.778580 
z"/>
<path fill="#E7FAD9" opacity="1.000000" stroke="none" 
	d="
M174.797379,234.234451 
	C174.234894,234.060913 173.753983,233.788925 173.109314,233.290344 
	C172.945541,233.063782 173.031967,232.969025 173.355484,232.981232 
	C174.133530,233.308777 174.588058,233.624115 175.042587,233.939453 
	C175.042587,233.939453 174.878952,234.135986 174.797379,234.234451 
z"/>
<path fill="#D9F7C9" opacity="1.000000" stroke="none" 
	d="
M201.214111,181.893524 
	C201.181549,181.749634 201.324020,181.445084 201.716125,181.061539 
	C201.815292,181.264725 201.623077,181.514832 201.214111,181.893524 
z"/>
<path fill="#EEFAE6" opacity="1.000000" stroke="none" 
	d="
M218.613556,93.007462 
	C219.016373,94.114075 219.034348,95.233284 219.025558,96.675491 
	C218.998779,96.998474 219.000000,97.000000 218.644852,97.037018 
	C215.191956,100.381371 212.094208,103.688705 208.996445,106.996033 
	C208.492355,107.560181 207.988251,108.124321 206.878830,108.849274 
	C205.181519,110.339348 204.089539,111.668617 202.997559,112.997894 
	C201.855438,113.909904 200.713318,114.821922 199.285904,115.867126 
	C197.917267,114.339539 196.833923,112.678764 195.369476,111.005341 
	C196.292236,109.630043 197.507614,108.167084 198.916824,106.923828 
	C202.916748,103.394958 206.864807,99.783966 211.099899,96.554985 
	C213.170746,94.976097 215.833740,94.173843 218.613556,93.007462 
z"/>
<path fill="#F7FCF3" opacity="1.000000" stroke="none" 
	d="
M209.403534,106.997963 
	C212.094208,103.688705 215.191956,100.381371 218.643936,97.036407 
	C219.210617,98.086777 219.423050,99.174767 219.416382,99.140602 
	C217.431015,101.439789 216.182846,103.300171 214.528305,104.669548 
	C213.213501,105.757759 211.401733,106.245529 209.403534,106.997963 
z"/>
<path fill="#F7FCF3" opacity="1.000000" stroke="none" 
	d="
M221.051331,122.979538 
	C220.273712,126.679031 219.088669,130.428406 217.571182,134.359985 
	C217.149338,130.342453 216.730316,126.045204 221.051331,122.979538 
z"/>
<path fill="#EEFCE8" opacity="1.000000" stroke="none" 
	d="
M175.283508,233.959106 
	C174.588058,233.624115 174.133530,233.308777 173.399261,232.934357 
	C172.112030,231.815765 171.104538,230.756241 170.038788,229.366455 
	C172.784958,229.036224 175.589371,229.036224 178.755707,229.036224 
	C177.596100,230.828217 176.808487,232.045364 176.014252,233.628448 
	C176.007645,233.994370 175.524445,233.978775 175.283508,233.959106 
z"/>
<path fill="#F7FCF3" opacity="1.000000" stroke="none" 
	d="
M197.000519,184.999603 
	C192.717377,181.959976 195.851288,178.181137 195.175903,174.782120 
	C195.783737,174.735092 196.391556,174.688065 196.999390,174.641037 
	C196.999390,177.789200 196.999390,180.937347 196.999146,184.543304 
	C196.998901,185.001114 197.000000,185.000000 197.000519,184.999603 
z"/>
<path fill="#F7FCF3" opacity="1.000000" stroke="none" 
	d="
M198.029266,164.763031 
	C198.486160,163.323746 198.960602,162.268890 199.435059,161.214020 
	C200.110138,161.820633 201.310913,162.399628 201.344559,163.039932 
	C201.404053,164.172775 200.753525,165.342911 200.400162,166.497437 
	C199.615723,166.047440 198.831284,165.597443 198.029266,164.763031 
z"/>
<path fill="#F7FCF3" opacity="1.000000" stroke="none" 
	d="
M216.639832,137.010818 
	C216.203247,139.516571 215.379166,142.030090 214.286606,144.776917 
	C212.436096,141.695847 213.033813,138.990875 216.639832,137.010818 
z"/>
<path fill="#F7FCF3" opacity="1.000000" stroke="none" 
	d="
M212.998962,131.000854 
	C212.818542,132.407425 212.637924,133.419662 212.457321,134.431900 
	C212.148422,134.409134 211.839539,134.386368 211.530640,134.363602 
	C211.530640,132.160995 211.530640,129.958389 211.530640,127.755783 
	C211.803940,127.685966 212.077225,127.616150 212.350525,127.546333 
	C212.566605,128.566391 212.782700,129.586456 212.998962,131.000854 
z"/>
<path fill="#DFF6D2" opacity="1.000000" stroke="none" 
	d="
M120.003281,196.980774 
	C119.516464,197.859436 119.029648,198.738098 118.305542,199.816681 
	C116.721481,197.945343 115.715874,195.954330 119.621704,195.013550 
	C120.002136,194.998169 120.051315,195.472900 120.034958,195.968826 
	C120.013496,196.636765 120.008385,196.808762 120.003281,196.980774 
z"/>
<path fill="#F7FCF3" opacity="1.000000" stroke="none" 
	d="
M203.341095,112.964661 
	C204.089539,111.668617 205.181519,110.339348 206.635406,109.003540 
	C205.893082,110.308479 204.788849,111.619949 203.341095,112.964661 
z"/>
<path fill="#F5F8EF" opacity="1.000000" stroke="none" 
	d="
M127.340332,184.964066 
	C128.089859,183.668137 129.182968,182.339905 130.638657,181.006439 
	C129.895447,182.311386 128.789688,183.621567 127.340332,184.964066 
z"/>
<path fill="#F7FCF3" opacity="1.000000" stroke="none" 
	d="
M213.347107,146.989746 
	C213.324921,148.186920 212.958191,149.405380 212.342300,150.831543 
	C210.621017,149.295731 210.095108,147.765823 213.347107,146.989746 
z"/>
<path fill="#F5F8EF" opacity="1.000000" stroke="none" 
	d="
M123.341125,188.963776 
	C124.101860,187.685913 125.206184,186.375397 126.653458,185.030792 
	C125.892509,186.308182 124.788612,187.619644 123.341125,188.963776 
z"/>
<path fill="#E7FAD9" opacity="1.000000" stroke="none" 
	d="
M184.583130,228.934570 
	C184.461578,230.130035 183.980026,231.373947 183.234055,232.816040 
	C181.645859,231.128937 181.234543,229.527390 184.583130,228.934570 
z"/>
<path fill="#F7FCF3" opacity="1.000000" stroke="none" 
	d="
M203.686035,171.046783 
	C203.546371,172.221954 203.058090,173.424606 202.308807,174.821564 
	C202.477692,173.701996 202.907562,172.388138 203.686035,171.046783 
z"/>
<path fill="#EAF9E2" opacity="1.000000" stroke="none" 
	d="
M120.255737,196.995850 
	C120.008385,196.808762 120.013496,196.636765 120.043274,196.207306 
	C120.362602,196.081223 120.603661,196.278183 120.901108,196.748947 
	C120.843475,196.975098 120.675827,196.993027 120.255737,196.995850 
z"/>
<path fill="#F1FAEF" opacity="1.000000" stroke="none" 
	d="
M170.649658,127.035583 
	C170.249664,130.959015 168.604965,133.849670 163.418167,133.004242 
	C165.437119,131.027359 167.868515,129.049408 170.649658,127.035583 
z"/>
<path fill="#F5FAEF" opacity="1.000000" stroke="none" 
	d="
M130.625580,157.001495 
	C130.168762,160.941757 127.203896,161.803268 123.390877,162.002686 
	C125.418510,160.336914 127.834846,158.669968 130.625580,157.001495 
z"/>
<path fill="#F8FEF4" opacity="1.000000" stroke="none" 
	d="
M99.492599,178.894653 
	C99.096848,178.448837 99.053131,178.040543 99.000702,177.323410 
	C100.750519,176.369095 102.509048,175.723602 104.632126,175.038635 
	C103.279335,176.310181 101.561989,177.621185 99.492599,178.894653 
z"/>
<path fill="#EEFAE6" opacity="1.000000" stroke="none" 
	d="
M190.602234,113.000648 
	C189.891434,114.309441 188.783478,115.619804 187.330444,116.960510 
	C186.865005,114.697823 187.041153,112.644142 190.602234,113.000648 
z"/>
<path fill="#F7FCF3" opacity="1.000000" stroke="none" 
	d="
M221.245743,88.995544 
	C221.900528,87.876877 222.807327,86.761215 223.894440,85.376633 
	C224.859024,85.160393 225.643280,85.213066 227.538071,85.340332 
	C225.328613,86.846573 223.972977,87.770752 222.309570,88.847710 
	C221.833817,88.999840 221.665787,88.999199 221.245743,88.995544 
z"/>
<path fill="#F4FBF0" opacity="1.000000" stroke="none" 
	d="
M138.633713,151.003021 
	C137.562119,152.309067 136.125443,153.618729 134.341614,154.959778 
	C135.419174,153.662994 136.843887,152.334824 138.633713,151.003021 
z"/>
<path fill="#F5FAEF" opacity="1.000000" stroke="none" 
	d="
M122.676651,163.039154 
	C122.542854,163.635895 122.089706,164.274796 121.314407,164.950195 
	C121.447266,164.351562 121.902283,163.716431 122.676651,163.039154 
z"/>
<path fill="#F4FBF0" opacity="1.000000" stroke="none" 
	d="
M140.690109,149.048492 
	C140.554794,149.646835 140.097290,150.282410 139.319580,150.958405 
	C139.455566,150.361115 139.911743,149.723404 140.690109,149.048492 
z"/>
<path fill="#EEFAE6" opacity="1.000000" stroke="none" 
	d="
M193.681213,111.044891 
	C193.543991,111.642616 193.086090,112.279121 192.305679,112.952606 
	C192.442307,112.354271 192.901428,111.718971 193.681213,111.044891 
z"/>
</svg>